<svg xmlns="http://www.w3.org/2000/svg" version="1.1" width="1024" height="1024">
<rect x="0" y="0" width="1024" height="1024" fill="#736446" />
<g transform="scale(4.000000) translate(0.5 0.5)">
<polygon fill="#bc9d63" fill-opacity="0.501961" points="36,17 270,62 1,176" />
<polygon fill="#192837" fill-opacity="0.501961" points="253,271 -16,244 264,160" />
<polygon fill="#c5a97c" fill-opacity="0.501961" points="136,155 230,168 187,7" />
<polygon fill="#080f13" fill-opacity="0.501961" points="7,-16 164,3 -16,29" />
<polygon fill="#222521" fill-opacity="0.501961" points="92,136 -8,268 100,258" />
<polygon fill="#160d00" fill-opacity="0.501961" points="258,98 233,174 232,47" />
<polygon fill="#e8b283" fill-opacity="0.501961" points="149,233 193,251 127,257" />
<polygon fill="#2c2219" fill-opacity="0.501961" points="-11,55 44,116 15,-12" />
<polygon fill="#182b32" fill-opacity="0.501961" points="78,39 142,55 81,-16" />
<polygon fill="#f2ac22" fill-opacity="0.501961" points="250,29 257,79 190,-16" />
<polygon fill="#d8aa55" fill-opacity="0.501961" points="30,139 23,211 57,204" />
<polygon fill="#150a04" fill-opacity="0.501961" points="170,26 123,9 174,-16" />
<polygon fill="#ecce93" fill-opacity="0.501961" points="77,26 79,67 31,19" />
<polygon fill="#4c4147" fill-opacity="0.501961" points="76,177 132,94 180,88" />
<polygon fill="#f2c76b" fill-opacity="0.501961" points="137,19 133,45 108,5" />
<polygon fill="#f13a0d" fill-opacity="0.501961" points="151,199 125,206 149,227" />
<polygon fill="#e1bd8a" fill-opacity="0.501961" points="254,166 245,144 232,179" />
<polygon fill="#9e672c" fill-opacity="0.501961" points="236,-8 235,130 160,16" />
<polygon fill="#776457" fill-opacity="0.501961" points="183,103 62,196 150,193" />
<polygon fill="#000007" fill-opacity="0.501961" points="255,-15 237,24 265,15" />
<polygon fill="#d0af5e" fill-opacity="0.501961" points="-16,149 74,146 69,109" />
<polygon fill="#cebd8a" fill-opacity="0.501961" points="183,43 163,74 222,147" />
<polygon fill="#16303f" fill-opacity="0.501961" points="234,174 181,268 271,219" />
<polygon fill="#332f25" fill-opacity="0.501961" points="82,88 70,99 78,140" />
<polygon fill="#cdb49c" fill-opacity="0.501961" points="95,105 134,78 99,134" />
<polygon fill="#3f2521" fill-opacity="0.501961" points="240,75 206,46 216,22" />
<polygon fill="#000000" fill-opacity="0.501961" points="151,91 179,106 167,92" />
<polygon fill="#54605e" fill-opacity="0.501961" points="233,160 187,251 140,227" />
<polygon fill="#20251e" fill-opacity="0.501961" points="87,268 39,199 -2,271" />
<polygon fill="#cab396" fill-opacity="0.501961" points="168,102 132,89 193,139" />
<polygon fill="#fff88e" fill-opacity="0.501961" points="65,-16 37,-16 42,8" />
<polygon fill="#1d1811" fill-opacity="0.501961" points="153,133 166,117 179,133" />
<polygon fill="#96763b" fill-opacity="0.501961" points="6,215 -3,95 50,97" />
<polygon fill="#060606" fill-opacity="0.501961" points="105,132 74,147 81,163" />
<polygon fill="#e1ccb4" fill-opacity="0.501961" points="120,51 103,68 133,67" />
<polygon fill="#353232" fill-opacity="0.501961" points="131,72 111,87 100,69" />
<polygon fill="#6d5215" fill-opacity="0.501961" points="-6,123 -11,271 25,244" />
<polygon fill="#dfcfa1" fill-opacity="0.501961" points="204,152 175,173 187,145" />
<polygon fill="#161009" fill-opacity="0.501961" points="135,41 112,39 106,54" />
<polygon fill="#8a7635" fill-opacity="0.501961" points="36,141 82,161 38,202" />
<polygon fill="#614b33" fill-opacity="0.501961" points="30,127 50,66 -16,75" />
<polygon fill="#ab7b4a" fill-opacity="0.501961" points="167,137 107,196 139,122" />
<polygon fill="#e1a431" fill-opacity="0.501961" points="237,66 250,79 250,24" />
<polygon fill="#bd8948" fill-opacity="0.501961" points="187,10 234,103 165,44" />
<polygon fill="#616333" fill-opacity="0.501961" points="178,58 138,60 136,-16" />
<polygon fill="#3b4640" fill-opacity="0.501961" points="64,210 173,181 18,271" />
<polygon fill="#c4a572" fill-opacity="0.501961" points="67,107 78,36 46,17" />
<polygon fill="#7c704c" fill-opacity="0.501961" points="179,155 236,177 201,195" />
<polygon fill="#a88866" fill-opacity="0.501961" points="0,121 36,191 15,78" />
<polygon fill="#98944d" fill-opacity="0.501961" points="134,37 176,33 118,91" />
<polygon fill="#110b08" fill-opacity="0.501961" points="178,176 185,191 215,201" />
<polygon fill="#010000" fill-opacity="0.501961" points="169,-16 138,-15 173,22" />
<polygon fill="#3e3e37" fill-opacity="0.501961" points="81,29 143,-16 31,10" />
<polygon fill="#e8af6c" fill-opacity="0.501961" points="29,179 20,224 35,205" />
<polygon fill="#d7c282" fill-opacity="0.501961" points="38,18 29,47 57,23" />
<polygon fill="#02031e" fill-opacity="0.501961" points="249,38 251,48 271,26" />
<polygon fill="#1d1e24" fill-opacity="0.501961" points="9,218 9,237 27,202" />
<polygon fill="#ffc634" fill-opacity="0.501961" points="245,45 243,28 258,22" />
<polygon fill="#332d27" fill-opacity="0.501961" points="138,98 111,144 140,121" />
<polygon fill="#63331b" fill-opacity="0.501961" points="201,-5 167,-16 213,39" />
<polygon fill="#1e1813" fill-opacity="0.501961" points="21,231 74,198 88,211" />
<polygon fill="#191a14" fill-opacity="0.501961" points="-13,-16 44,8 27,30" />
<polygon fill="#676432" fill-opacity="0.501961" points="205,152 205,116 189,128" />
<polygon fill="#4f6865" fill-opacity="0.501961" points="119,189 147,197 159,142" />
<polygon fill="#150900" fill-opacity="0.501961" points="165,198 155,225 152,201" />
<polygon fill="#1c191a" fill-opacity="0.501961" points="3,33 -16,88 5,98" />
<polygon fill="#a6a17b" fill-opacity="0.501961" points="159,83 224,148 213,79" />
<polygon fill="#342f1b" fill-opacity="0.501961" points="252,114 224,138 232,181" />
<polygon fill="#8d785a" fill-opacity="0.501961" points="4,20 48,74 61,33" />
<polygon fill="#677e78" fill-opacity="0.501961" points="163,239 186,210 194,236" />
<polygon fill="#6a544c" fill-opacity="0.501961" points="124,136 57,188 103,214" />
<polygon fill="#2b2e2a" fill-opacity="0.501961" points="137,185 108,271 68,271" />
<polygon fill="#293841" fill-opacity="0.501961" points="259,164 271,267 186,212" />
<polygon fill="#79665b" fill-opacity="0.501961" points="73,97 91,68 107,110" />
<polygon fill="#d2b64f" fill-opacity="0.501961" points="70,150 36,136 44,109" />
<polygon fill="#85785d" fill-opacity="0.501961" points="271,149 247,169 254,87" />
<polygon fill="#d4a85b" fill-opacity="0.501961" points="104,45 99,78 82,46" />
<polygon fill="#9b3e18" fill-opacity="0.501961" points="152,199 130,201 120,247" />
<polygon fill="#1b1b10" fill-opacity="0.501961" points="233,102 248,131 250,75" />
<polygon fill="#cdbd80" fill-opacity="0.501961" points="187,140 173,122 197,96" />
<polygon fill="#f0e09e" fill-opacity="0.501961" points="35,67 45,53 27,67" />
<polygon fill="#c0a691" fill-opacity="0.501961" points="166,117 144,83 152,121" />
<polygon fill="#3d3229" fill-opacity="0.501961" points="159,35 156,-16 80,-16" />
<polygon fill="#a88631" fill-opacity="0.501961" points="-8,210 12,214 14,171" />
<polygon fill="#988377" fill-opacity="0.501961" points="166,138 185,153 147,192" />
<polygon fill="#49402e" fill-opacity="0.501961" points="166,128 176,106 183,109" />
<polygon fill="#4e564b" fill-opacity="0.501961" points="80,2 78,57 101,19" />
<polygon fill="#434952" fill-opacity="0.501961" points="222,246 157,186 174,169" />
<polygon fill="#a57f35" fill-opacity="0.501961" points="28,102 76,121 64,81" />
<polygon fill="#ba8a3a" fill-opacity="0.501961" points="52,170 37,201 53,212" />
<polygon fill="#545927" fill-opacity="0.501961" points="159,49 174,51 149,79" />
<polygon fill="#ddc280" fill-opacity="0.501961" points="100,102 107,130 90,135" />
<polygon fill="#412f25" fill-opacity="0.501961" points="211,33 223,27 213,70" />
<polygon fill="#352b21" fill-opacity="0.501961" points="182,109 151,95 157,88" />
<polygon fill="#c8a68f" fill-opacity="0.501961" points="37,139 8,149 25,130" />
<polygon fill="#dac793" fill-opacity="0.501961" points="158,76 167,60 190,69" />
<polygon fill="#2d2827" fill-opacity="0.501961" points="14,55 -16,58 28,91" />
<polygon fill="#75625d" fill-opacity="0.501961" points="25,143 8,163 52,138" />
<polygon fill="#947359" fill-opacity="0.501961" points="165,228 137,244 182,250" />
<polygon fill="#b79439" fill-opacity="0.501961" points="-4,149 19,142 1,99" />
<polygon fill="#de9d50" fill-opacity="0.501961" points="217,82 219,57 229,83" />
<polygon fill="#e7c117" fill-opacity="0.501961" points="33,119 27,105 27,120" />
<polygon fill="#978374" fill-opacity="0.501961" points="90,89 115,132 105,70" />
<polygon fill="#476959" fill-opacity="0.501961" points="39,238 85,222 67,216" />
<polygon fill="#cdb97d" fill-opacity="0.501961" points="49,18 33,54 36,18" />
<polygon fill="#9f7b33" fill-opacity="0.501961" points="227,55 242,9 213,-16" />
<polygon fill="#ab6742" fill-opacity="0.501961" points="186,30 214,55 198,18" />
<polygon fill="#413b26" fill-opacity="0.501961" points="121,271 148,223 118,216" />
<polygon fill="#7a783f" fill-opacity="0.501961" points="200,81 234,144 233,81" />
<polygon fill="#8f806b" fill-opacity="0.501961" points="149,190 100,186 109,168" />
<polygon fill="#4e4034" fill-opacity="0.501961" points="31,197 41,182 35,202" />
<polygon fill="#2d2c1c" fill-opacity="0.501961" points="39,112 28,115 34,103" />
<polygon fill="#a18c82" fill-opacity="0.501961" points="162,80 139,83 145,103" />
<polygon fill="#e2b978" fill-opacity="0.501961" points="242,175 234,168 243,157" />
<polygon fill="#4e472c" fill-opacity="0.501961" points="46,160 89,159 57,147" />
<polygon fill="#4c3c2a" fill-opacity="0.501961" points="-16,81 -16,23 34,25" />
<polygon fill="#fff6b0" fill-opacity="0.501961" points="33,60 34,48 31,49" />
<polygon fill="#846659" fill-opacity="0.501961" points="5,77 16,141 21,87" />
<polygon fill="#d6b168" fill-opacity="0.501961" points="109,2 139,32 127,35" />
<polygon fill="#705d42" fill-opacity="0.501961" points="38,132 67,120 51,121" />
<polygon fill="#4d4d43" fill-opacity="0.501961" points="139,184 139,155 166,164" />
<polygon fill="#89764c" fill-opacity="0.501961" points="205,141 233,173 213,192" />
<polygon fill="#4e453d" fill-opacity="0.501961" points="180,134 143,116 162,140" />
<polygon fill="#caab5f" fill-opacity="0.501961" points="70,107 43,146 76,149" />
<polygon fill="#4d443a" fill-opacity="0.501961" points="74,135 119,152 128,134" />
<polygon fill="#676339" fill-opacity="0.501961" points="127,42 162,11 177,33" />
<polygon fill="#e94923" fill-opacity="0.501961" points="129,206 144,199 155,209" />
<polygon fill="#fff2a2" fill-opacity="0.501961" points="77,31 72,28 76,44" />
<polygon fill="#c0a793" fill-opacity="0.501961" points="105,60 119,49 132,80" />
<polygon fill="#867364" fill-opacity="0.501961" points="127,118 99,144 122,95" />
<polygon fill="#3e1e1a" fill-opacity="0.501961" points="233,58 243,61 229,42" />
<polygon fill="#c29d53" fill-opacity="0.501961" points="191,40 176,65 174,13" />
<polygon fill="#928e2e" fill-opacity="0.501961" points="122,74 150,60 171,83" />
<polygon fill="#bdb08b" fill-opacity="0.501961" points="67,79 52,56 58,29" />
<polygon fill="#d9a631" fill-opacity="0.501961" points="244,77 242,44 271,62" />
<polygon fill="#58605e" fill-opacity="0.501961" points="96,28 79,33 67,9" />
<polygon fill="#ffebcc" fill-opacity="0.501961" points="33,150 32,166 35,159" />
<polygon fill="#282326" fill-opacity="0.501961" points="100,69 107,50 106,63" />
<polygon fill="#27211a" fill-opacity="0.501961" points="10,244 37,205 63,222" />
<polygon fill="#7e6851" fill-opacity="0.501961" points="57,69 39,80 53,32" />
<polygon fill="#211b13" fill-opacity="0.501961" points="126,54 131,40 120,38" />
<polygon fill="#2e3228" fill-opacity="0.501961" points="4,186 -16,202 7,164" />
<polygon fill="#b99067" fill-opacity="0.501961" points="150,227 121,271 153,258" />
<polygon fill="#314c3d" fill-opacity="0.501961" points="271,268 170,244 259,229" />
<polygon fill="#9a723a" fill-opacity="0.501961" points="23,246 21,241 33,231" />
<polygon fill="#7d6a3c" fill-opacity="0.501961" points="59,120 62,136 70,135" />
<polygon fill="#c6b37c" fill-opacity="0.501961" points="211,176 207,156 191,140" />
<polygon fill="#3f4238" fill-opacity="0.501961" points="196,172 216,194 202,164" />
<polygon fill="#50453c" fill-opacity="0.501961" points="35,153 44,155 40,140" />
<polygon fill="#3c332c" fill-opacity="0.501961" points="109,79 122,75 116,89" />
<polygon fill="#c09850" fill-opacity="0.501961" points="20,229 24,189 40,177" />
<polygon fill="#9e7444" fill-opacity="0.501961" points="142,123 154,154 109,176" />
<polygon fill="#e6be4c" fill-opacity="0.501961" points="84,101 92,109 83,116" />
<polygon fill="#b19155" fill-opacity="0.501961" points="119,38 82,57 83,71" />
<polygon fill="#38342c" fill-opacity="0.501961" points="99,-15 72,25 30,12" />
<polygon fill="#2e383e" fill-opacity="0.501961" points="172,208 139,225 173,229" />
<polygon fill="#524a38" fill-opacity="0.501961" points="15,163 15,219 25,186" />
<polygon fill="#d9be91" fill-opacity="0.501961" points="177,248 190,251 164,253" />
<polygon fill="#4a2e2f" fill-opacity="0.501961" points="212,68 216,78 210,81" />
<polygon fill="#ba7d42" fill-opacity="0.501961" points="224,91 228,61 236,73" />
<polygon fill="#201f19" fill-opacity="0.501961" points="73,151 79,141 88,168" />
<polygon fill="#5d4c2d" fill-opacity="0.501961" points="240,128 226,162 224,118" />
<polygon fill="#202829" fill-opacity="0.501961" points="130,253 -4,271 33,238" />
<polygon fill="#fff3a2" fill-opacity="0.501961" points="74,39 76,57 78,46" />
<polygon fill="#c39c36" fill-opacity="0.501961" points="224,30 218,-8 189,-16" />
<polygon fill="#3e251a" fill-opacity="0.501961" points="190,-1 190,23 197,6" />
<polygon fill="#412b22" fill-opacity="0.501961" points="225,67 238,61 220,50" />
<polygon fill="#d39e32" fill-opacity="0.501961" points="238,8 231,-8 234,22" />
<polygon fill="#c6ac91" fill-opacity="0.501961" points="106,59 104,72 129,53" />
<polygon fill="#556453" fill-opacity="0.501961" points="108,244 119,186 103,213" />
<polygon fill="#b9a08b" fill-opacity="0.501961" points="108,111 126,108 98,82" />
<polygon fill="#655146" fill-opacity="0.501961" points="86,154 123,170 111,126" />
<polygon fill="#ffc365" fill-opacity="0.501961" points="47,6 40,2 46,-15" />
<polygon fill="#655039" fill-opacity="0.501961" points="171,172 172,195 148,201" />
<polygon fill="#51443d" fill-opacity="0.501961" points="141,118 137,94 120,98" />
<polygon fill="#272426" fill-opacity="0.501961" points="240,-15 244,21 262,24" />
<polygon fill="#d5b46f" fill-opacity="0.501961" points="4,12 2,4 7,13" />
<polygon fill="#746151" fill-opacity="0.501961" points="185,249 154,234 153,252" />
<polygon fill="#756050" fill-opacity="0.501961" points="146,109 155,98 145,93" />
<polygon fill="#bea388" fill-opacity="0.501961" points="176,144 165,160 160,144" />
<polygon fill="#5e513d" fill-opacity="0.501961" points="81,83 75,58 74,72" />
<polygon fill="#363229" fill-opacity="0.501961" points="106,239 73,190 50,192" />
<polygon fill="#ffe071" fill-opacity="0.501961" points="79,130 84,127 81,124" />
<polygon fill="#655545" fill-opacity="0.501961" points="45,48 36,54 34,40" />
<polygon fill="#3b3a2f" fill-opacity="0.501961" points="74,137 82,113 76,95" />
<polygon fill="#ffd390" fill-opacity="0.501961" points="33,206 32,199 27,214" />
<polygon fill="#24241c" fill-opacity="0.501961" points="-15,10 46,14 25,25" />
<polygon fill="#948c54" fill-opacity="0.501961" points="194,122 180,99 182,118" />
<polygon fill="#cfb79c" fill-opacity="0.501961" points="151,109 151,99 172,104" />
<polygon fill="#9f7027" fill-opacity="0.501961" points="-1,265 8,271 7,233" />
<polygon fill="#cb9e34" fill-opacity="0.501961" points="69,154 74,146 64,128" />
<polygon fill="#363d3a" fill-opacity="0.501961" points="101,38 122,28 83,0" />
<polygon fill="#85561e" fill-opacity="0.501961" points="203,3 172,10 171,-16" />
<polygon fill="#857f5f" fill-opacity="0.501961" points="182,179 181,161 202,185" />
<polygon fill="#eecd86" fill-opacity="0.501961" points="74,148 67,124 74,132" />
<polygon fill="#d3c34a" fill-opacity="0.501961" points="141,64 141,73 130,66" />
<polygon fill="#d5b733" fill-opacity="0.501961" points="53,123 26,119 43,113" />
<polygon fill="#ba995a" fill-opacity="0.501961" points="132,13 139,29 109,19" />
<polygon fill="#b68f53" fill-opacity="0.501961" points="46,82 74,99 74,64" />
<polygon fill="#6d5833" fill-opacity="0.501961" points="38,75 21,128 12,111" />
<polygon fill="#1d1717" fill-opacity="0.501961" points="137,196 125,196 125,211" />
<polygon fill="#ba9f47" fill-opacity="0.501961" points="65,176 36,170 54,167" />
<polygon fill="#ba8f5c" fill-opacity="0.501961" points="150,154 140,122 154,124" />
<polygon fill="#bfb651" fill-opacity="0.501961" points="156,40 156,50 142,43" />
<polygon fill="#816e5f" fill-opacity="0.501961" points="75,183 84,203 93,185" />
<polygon fill="#81632b" fill-opacity="0.501961" points="219,-15 228,42 233,1" />
<polygon fill="#796960" fill-opacity="0.501961" points="186,141 178,164 175,127" />
<polygon fill="#090500" fill-opacity="0.501961" points="28,235 28,243 46,229" />
<polygon fill="#4b4134" fill-opacity="0.501961" points="102,69 99,90 104,81" />
</g>
</svg>