<svg xmlns="http://www.w3.org/2000/svg" viewBox="0 0 256 251.14691943127963" clip-path="url(#clip)" width="512" height="502.29383886255926">
  <defs>
    <clipPath id="clip" clipPathUnits="objectBoundingBox">
      <rect x="0" y="0" width="256" height="251.14691943127963"/>
    </clipPath>
  </defs>
  <rect x="0" y="0" width="256" height="251.14691943127963" fill="rgb(107, 84, 69)"/>
  <path d="M183,153L184,227L232,178Z" fill="rgb(245, 243, 218)" fill-opacity="0.65"/>
  <path d="M106,158L151,85L156,144Z" fill="rgb(255, 255, 226)" fill-opacity="0.65"/>
  <path d="M92,124L8,18L-86,228Z" fill="rgb(20, 18, 24)" fill-opacity="0.81"/>
  <path d="M68,301L-59,158L140,178Z" fill="rgb(56, 16, 12)" fill-opacity="0.93"/>
  <path d="M193,230L235,192L234,223Z" fill="rgb(255, 255, 238)" fill-opacity="0.77"/>
  <path d="M407,148L163,-99L159,29Z" fill="rgb(184, 195, 173)" fill-opacity="0.62"/>
  <path d="M33,4L80,35L101,3Z" fill="rgb(245, 159, 123)" fill-opacity="0.52"/>
  <path d="M168,183L147,177L179,171Z" fill="rgb(242, 232, 206)" fill-opacity="0.62"/>
  <path d="M85,172L99,131L38,145Z" fill="rgb(17, 0, 3)" fill-opacity="0.57"/>
  <path d="M222,184L275,192L197,276Z" fill="rgb(255, 244, 219)" fill-opacity="0.28"/>
  <path d="M107,143L123,180L147,164Z" fill="rgb(186, 157, 145)" fill-opacity="0.46"/>
  <path d="M246,141L182,153L252,170Z" fill="rgb(203, 193, 161)" fill-opacity="0.58"/>
  <path d="M17,46L131,115L118,10Z" fill="rgb(134, 0, 10)" fill-opacity="0.48"/>
  <path d="M114,-52L106,113L356,177Z" fill="rgb(213, 105, 39)" fill-opacity="0.32"/>
  <path d="M177,87L129,102L139,149Z" fill="rgb(244, 252, 250)" fill-opacity="0.35"/>
  <path d="M126,215L189,291L166,208Z" fill="rgb(55, 1, 3)" fill-opacity="0.66"/>
  <path d="M412,71L243,4L218,36Z" fill="rgb(182, 215, 245)" fill-opacity="0.62"/>
  <path d="M197,162L170,96L148,170Z" fill="rgb(125, 53, 0)" fill-opacity="0.62"/>
  <path d="M138,36L140,12L104,38Z" fill="rgb(188, 158, 153)" fill-opacity="0.59"/>
  <path d="M278,99L242,130L234,83Z" fill="rgb(187, 174, 151)" fill-opacity="0.50"/>
  <path d="M239,116L242,97L152,112Z" fill="rgb(194, 177, 164)" fill-opacity="0.41"/>
  <path d="M201,207L212,155L169,190Z" fill="rgb(255, 255, 228)" fill-opacity="0.54"/>
  <path d="M246,216L252,196L228,197Z" fill="rgb(208, 208, 221)" fill-opacity="0.49"/>
  <path d="M80,171L58,166L41,198Z" fill="rgb(137, 111, 97)" fill-opacity="0.59"/>
  <path d="M48,11L16,34L34,44Z" fill="rgb(253, 164, 141)" fill-opacity="0.56"/>
  <path d="M117,240L128,219L148,241Z" fill="rgb(63, 5, 4)" fill-opacity="0.69"/>
  <path d="M84,142L104,163L120,155Z" fill="rgb(70, 34, 32)" fill-opacity="0.64"/>
  <path d="M27,161L30,133L65,169Z" fill="rgb(145, 139, 142)" fill-opacity="0.60"/>
  <path d="M115,128L88,84L113,91Z" fill="rgb(255, 216, 205)" fill-opacity="0.30"/>
  <path d="M206,191L239,186L181,230Z" fill="rgb(156, 137, 119)" fill-opacity="0.85"/>
  <path d="M225,67L90,83L78,43Z" fill="rgb(112, 8, 0)" fill-opacity="0.60"/>
  <path d="M228,236L222,307L290,197Z" fill="rgb(65, 24, 6)" fill-opacity="0.71"/>
  <path d="M146,111L137,123L187,123Z" fill="rgb(110, 52, 21)" fill-opacity="0.46"/>
  <path d="M222,225L236,227L244,211Z" fill="rgb(108, 73, 52)" fill-opacity="0.59"/>
  <path d="M131,143L128,157L157,143Z" fill="rgb(97, 33, 33)" fill-opacity="0.44"/>
  <path d="M221,241L232,256L205,261Z" fill="rgb(252, 255, 227)" fill-opacity="0.50"/>
  <path d="M224,155L198,149L223,142Z" fill="rgb(209, 224, 223)" fill-opacity="0.49"/>
  <path d="M201,224L170,237L224,266Z" fill="rgb(93, 41, 23)" fill-opacity="0.54"/>
  <path d="M133,239L148,317L54,249Z" fill="rgb(145, 108, 96)" fill-opacity="0.67"/>
  <path d="M81,59L39,45L75,46Z" fill="rgb(189, 109, 102)" fill-opacity="0.58"/>
  <path d="M42,15L35,-98L-24,45Z" fill="rgb(117, 33, 32)" fill-opacity="0.86"/>
  <path d="M115,148L148,96L130,151Z" fill="rgb(255, 255, 227)" fill-opacity="0.55"/>
  <path d="M104,94L107,82L116,85Z" fill="rgb(216, 164, 154)" fill-opacity="0.54"/>
  <path d="M73,98L76,79L84,105Z" fill="rgb(254, 172, 158)" fill-opacity="0.47"/>
  <path d="M43,113L26,135L37,140Z" fill="rgb(110, 114, 124)" fill-opacity="0.49"/>
  <path d="M58,82L-29,13L92,75Z" fill="rgb(32, 25, 30)" fill-opacity="0.56"/>
  <path d="M66,148L75,134L55,105Z" fill="rgb(95, 85, 83)" fill-opacity="0.57"/>
  <path d="M33,138L21,172L31,173Z" fill="rgb(130, 141, 147)" fill-opacity="0.50"/>
  <path d="M207,171L211,194L178,185Z" fill="rgb(255, 255, 240)" fill-opacity="0.64"/>
  <path d="M133,-8L149,46L216,32Z" fill="rgb(149, 115, 84)" fill-opacity="0.96"/>
  <path d="M186,111L175,91L154,146Z" fill="rgb(121, 43, 0)" fill-opacity="0.54"/>
  <path d="M185,206L167,238L207,211Z" fill="rgb(146, 132, 130)" fill-opacity="0.51"/>
  <path d="M203,198L214,186L208,209Z" fill="rgb(112, 73, 31)" fill-opacity="0.63"/>
  <path d="M55,93L109,112L89,139Z" fill="rgb(76, 53, 51)" fill-opacity="0.87"/>
  <path d="M126,130L129,80L111,100Z" fill="rgb(92, 0, 0)" fill-opacity="0.46"/>
  <path d="M83,70L70,64L94,50Z" fill="rgb(1, 16, 24)" fill-opacity="0.52"/>
  <path d="M235,195L196,232L226,224Z" fill="rgb(255, 255, 239)" fill-opacity="0.54"/>
  <path d="M-2,241L51,223L6,164Z" fill="rgb(7, 11, 12)" fill-opacity="0.71"/>
  <path d="M50,24L68,25L23,52Z" fill="rgb(88, 19, 23)" fill-opacity="0.65"/>
  <path d="M239,52L116,50L192,89Z" fill="rgb(135, 72, 14)" fill-opacity="0.51"/>
  <path d="M135,212L118,216L111,240Z" fill="rgb(173, 138, 124)" fill-opacity="0.59"/>
  <path d="M165,117L167,97L132,89Z" fill="rgb(221, 213, 204)" fill-opacity="0.43"/>
  <path d="M31,43L72,-22L16,40Z" fill="rgb(200, 135, 113)" fill-opacity="0.57"/>
  <path d="M198,224L213,210L215,232Z" fill="rgb(241, 238, 206)" fill-opacity="0.64"/>
  <path d="M84,163L51,168L81,124Z" fill="rgb(47, 12, 9)" fill-opacity="0.53"/>
  <path d="M219,231L208,237L229,242Z" fill="rgb(80, 27, 6)" fill-opacity="0.49"/>
  <path d="M92,32L80,-2L72,26Z" fill="rgb(206, 157, 126)" fill-opacity="0.59"/>
  <path d="M294,163L267,126L143,120Z" fill="rgb(124, 81, 0)" fill-opacity="0.41"/>
  <path d="M226,78L274,70L228,61Z" fill="rgb(159, 160, 123)" fill-opacity="0.64"/>
  <path d="M30,11L33,27L41,15Z" fill="rgb(96, 20, 19)" fill-opacity="0.52"/>
  <path d="M180,43L167,104L161,81Z" fill="rgb(131, 35, 15)" fill-opacity="0.54"/>
  <path d="M169,181L180,190L170,193Z" fill="rgb(108, 40, 31)" fill-opacity="0.55"/>
  <path d="M152,175L117,204L191,201Z" fill="rgb(179, 112, 104)" fill-opacity="0.33"/>
  <path d="M39,54L53,29L39,31Z" fill="rgb(31, 10, 14)" fill-opacity="0.49"/>
  <path d="M126,152L119,162L118,142Z" fill="rgb(252, 251, 194)" fill-opacity="0.51"/>
  <path d="M46,193L127,172L106,257Z" fill="rgb(105, 6, 0)" fill-opacity="0.46"/>
  <path d="M148,165L181,180L217,118Z" fill="rgb(133, 88, 36)" fill-opacity="0.53"/>
  <path d="M115,112L130,125L115,144Z" fill="rgb(134, 68, 59)" fill-opacity="0.79"/>
  <path d="M225,104L244,87L161,59Z" fill="rgb(128, 71, 1)" fill-opacity="0.54"/>
  <path d="M225,144L190,159L182,179Z" fill="rgb(203, 193, 185)" fill-opacity="0.42"/>
  <path d="M198,178L177,203L178,183Z" fill="rgb(247, 248, 204)" fill-opacity="0.51"/>
  <path d="M88,153L86,175L102,167Z" fill="rgb(150, 172, 170)" fill-opacity="0.39"/>
  <path d="M63,35L23,-8L82,12Z" fill="rgb(216, 149, 120)" fill-opacity="0.38"/>
  <path d="M228,162L246,195L230,194Z" fill="rgb(128, 84, 19)" fill-opacity="0.64"/>
  <path d="M148,208L115,191L131,211Z" fill="rgb(174, 130, 119)" fill-opacity="0.38"/>
  <path d="M29,242L8,235L-35,286Z" fill="rgb(102, 106, 113)" fill-opacity="0.47"/>
  <path d="M90,179L143,176L132,199Z" fill="rgb(104, 8, 5)" fill-opacity="0.52"/>
  <path d="M91,118L82,116L98,73Z" fill="rgb(164, 116, 107)" fill-opacity="0.53"/>
  <path d="M204,201L197,214L207,210Z" fill="rgb(187, 208, 225)" fill-opacity="0.52"/>
  <path d="M36,171L-71,179L37,207Z" fill="rgb(42, 48, 48)" fill-opacity="0.50"/>
  <path d="M129,249L117,239L157,244Z" fill="rgb(172, 168, 162)" fill-opacity="0.45"/>
  <path d="M176,193L193,158L177,172Z" fill="rgb(164, 144, 130)" fill-opacity="0.47"/>
  <path d="M154,123L152,111L141,120Z" fill="rgb(122, 68, 38)" fill-opacity="0.55"/>
  <path d="M207,166L243,146L260,166Z" fill="rgb(176, 177, 150)" fill-opacity="0.48"/>
  <path d="M-3,73L58,84L12,158Z" fill="rgb(0, 2, 4)" fill-opacity="0.46"/>
  <path d="M116,240L106,258L106,240Z" fill="rgb(159, 141, 126)" fill-opacity="0.66"/>
  <path d="M146,55L115,56L158,24Z" fill="rgb(166, 102, 103)" fill-opacity="0.53"/>
  <path d="M20,32L1,118L-77,47Z" fill="rgb(3, 0, 0)" fill-opacity="0.67"/>
  <path d="M97,-4L86,20L150,19Z" fill="rgb(147, 65, 23)" fill-opacity="0.48"/>
  <path d="M106,-7L91,6L84,-17Z" fill="rgb(201, 197, 172)" fill-opacity="0.49"/>
  <path d="M14,162L-29,171L27,138Z" fill="rgb(64, 72, 80)" fill-opacity="0.47"/>
  <path d="M160,267L198,233L203,213Z" fill="rgb(82, 28, 22)" fill-opacity="0.53"/>
  <path d="M162,189L171,184L179,207Z" fill="rgb(102, 42, 38)" fill-opacity="0.45"/>
  <path d="M4,71L43,81L55,43Z" fill="rgb(58, 47, 56)" fill-opacity="0.47"/>
  <path d="M226,109L245,134L250,107Z" fill="rgb(175, 153, 132)" fill-opacity="0.49"/>
  <path d="M83,137L95,104L110,109Z" fill="rgb(46, 26, 27)" fill-opacity="0.58"/>
  <path d="M14,245L22,262L19,237Z" fill="rgb(137, 135, 128)" fill-opacity="0.54"/>
  <path d="M129,77L115,77L129,89Z" fill="rgb(166, 103, 105)" fill-opacity="0.61"/>
  <path d="M55,177L60,181L52,203Z" fill="rgb(159, 191, 181)" fill-opacity="0.33"/>
  <path d="M45,147L56,156L39,170Z" fill="rgb(160, 171, 168)" fill-opacity="0.43"/>
  <path d="M135,119L155,125L152,147Z" fill="rgb(255, 255, 240)" fill-opacity="0.52"/>
  <path d="M141,139L144,98L130,114Z" fill="rgb(252, 255, 218)" fill-opacity="0.55"/>
  <path d="M42,172L58,297L18,228Z" fill="rgb(18, 4, 3)" fill-opacity="0.55"/>
  <path d="M154,174L178,179L155,182Z" fill="rgb(255, 255, 252)" fill-opacity="0.45"/>
  <path d="M168,6L212,-47L172,20Z" fill="rgb(179, 205, 238)" fill-opacity="0.42"/>
  <path d="M85,158L101,152L86,171Z" fill="rgb(140, 127, 117)" fill-opacity="0.50"/>
  <path d="M126,16L113,29L140,37Z" fill="rgb(188, 168, 160)" fill-opacity="0.47"/>
  <path d="M134,3L196,-33L150,6Z" fill="rgb(173, 161, 160)" fill-opacity="0.57"/>
  <path d="M200,252L176,252L194,246Z" fill="rgb(248, 236, 179)" fill-opacity="0.39"/>
  <path d="M123,188L106,202L122,200Z" fill="rgb(130, 84, 68)" fill-opacity="0.41"/>
  <path d="M248,179L207,212L223,204Z" fill="rgb(101, 44, 3)" fill-opacity="0.57"/>
  <path d="M225,2L252,19L224,33Z" fill="rgb(178, 208, 231)" fill-opacity="0.50"/>
  <path d="M172,194L189,169L166,195Z" fill="rgb(117, 69, 55)" fill-opacity="0.57"/>
  <path d="M190,234L186,211L172,223Z" fill="rgb(154, 143, 141)" fill-opacity="0.55"/>
  <path d="M60,6L80,7L49,-22Z" fill="rgb(139, 48, 24)" fill-opacity="0.71"/>
  <path d="M86,27L49,58L73,64Z" fill="rgb(170, 98, 98)" fill-opacity="0.39"/>
  <path d="M153,23L137,19L140,36Z" fill="rgb(128, 58, 0)" fill-opacity="0.44"/>
  <path d="M170,220L137,198L192,209Z" fill="rgb(107, 61, 51)" fill-opacity="0.69"/>
  <path d="M235,50L232,33L313,-3Z" fill="rgb(166, 183, 187)" fill-opacity="0.88"/>
  <path d="M151,39L148,12L177,41Z" fill="rgb(169, 141, 133)" fill-opacity="0.44"/>
  <path d="M194,118L169,132L206,160Z" fill="rgb(137, 90, 33)" fill-opacity="0.57"/>
  <path d="M90,99L86,79L79,108Z" fill="rgb(80, 33, 39)" fill-opacity="0.62"/>
  <path d="M104,136L94,130L104,122Z" fill="rgb(110, 128, 138)" fill-opacity="0.50"/>
  <path d="M82,182L66,178L73,158Z" fill="rgb(135, 118, 105)" fill-opacity="0.50"/>
  <path d="M147,261L157,242L160,254Z" fill="rgb(155, 151, 145)" fill-opacity="0.51"/>
  <path d="M184,98L146,71L133,92Z" fill="rgb(159, 84, 93)" fill-opacity="0.48"/>
  <path d="M185,95L185,113L166,98Z" fill="rgb(129, 33, 3)" fill-opacity="0.49"/>
  <path d="M79,105L70,83L82,85Z" fill="rgb(224, 153, 134)" fill-opacity="0.66"/>
  <path d="M226,235L227,259L296,237Z" fill="rgb(70, 31, 16)" fill-opacity="0.70"/>
  <path d="M108,212L42,195L46,242Z" fill="rgb(47, 0, 0)" fill-opacity="0.60"/>
  <path d="M251,220L231,214L273,213Z" fill="rgb(190, 188, 198)" fill-opacity="0.38"/>
  <path d="M256,69L302,84L231,90Z" fill="rgb(138, 115, 38)" fill-opacity="0.64"/>
  <path d="M128,160L135,140L117,169Z" fill="rgb(94, 57, 61)" fill-opacity="0.43"/>
  <path d="M208,144L223,143L220,158Z" fill="rgb(181, 186, 181)" fill-opacity="0.72"/>
  <path d="M68,147L53,129L21,151Z" fill="rgb(16, 13, 10)" fill-opacity="0.43"/>
  <path d="M112,217L117,287L71,250Z" fill="rgb(211, 139, 50)" fill-opacity="0.13"/>
  <path d="M185,117L188,109L183,115Z" fill="rgb(202, 207, 218)" fill-opacity="0.50"/>
  <path d="M65,156L77,134L101,146Z" fill="rgb(11, 1, 3)" fill-opacity="0.49"/>
  <path d="M109,121L112,126L115,103Z" fill="rgb(228, 202, 165)" fill-opacity="0.43"/>
  <path d="M209,121L225,97L223,124Z" fill="rgb(174, 153, 128)" fill-opacity="0.51"/>
  <path d="M57,97L57,82L61,81Z" fill="rgb(130, 96, 95)" fill-opacity="0.50"/>
  <path d="M255,103L265,86L235,93Z" fill="rgb(173, 178, 152)" fill-opacity="0.48"/>
  <path d="M155,127L173,108L164,163Z" fill="rgb(117, 47, 8)" fill-opacity="0.86"/>
  <path d="M154,143L123,166L138,173Z" fill="rgb(172, 146, 139)" fill-opacity="0.42"/>
  <path d="M131,138L105,147L124,155Z" fill="rgb(255, 255, 188)" fill-opacity="0.41"/>
  <path d="M177,162L159,138L146,157Z" fill="rgb(109, 45, 10)" fill-opacity="0.49"/>
  <path d="M56,51L49,42L35,44Z" fill="rgb(70, 17, 20)" fill-opacity="0.65"/>
  <path d="M215,152L231,173L203,169Z" fill="rgb(148, 118, 44)" fill-opacity="0.41"/>
  <path d="M5,191L-13,187L0,198Z" fill="rgb(113, 125, 135)" fill-opacity="0.53"/>
  <path d="M310,205L244,164L228,178Z" fill="rgb(137, 99, 23)" fill-opacity="0.58"/>
  <path d="M219,217L223,225L203,237Z" fill="rgb(235, 232, 195)" fill-opacity="0.46"/>
  <path d="M195,168L212,168L196,179Z" fill="rgb(169, 169, 173)" fill-opacity="0.54"/>
  <path d="M93,64L90,93L81,67Z" fill="rgb(126, 57, 59)" fill-opacity="0.66"/>
  <path d="M106,50L104,34L143,38Z" fill="rgb(156, 73, 72)" fill-opacity="0.61"/>
  <path d="M99,137L82,135L105,127Z" fill="rgb(111, 117, 114)" fill-opacity="0.49"/>
  <path d="M106,47L78,59L91,19Z" fill="rgb(112, 2, 3)" fill-opacity="0.65"/>
  <path d="M25,161L52,169L33,149Z" fill="rgb(148, 148, 150)" fill-opacity="0.55"/>
  <path d="M48,13L40,10L34,45Z" fill="rgb(255, 183, 144)" fill-opacity="0.37"/>
  <path d="M130,126L155,139L113,147Z" fill="rgb(255, 255, 219)" fill-opacity="0.49"/>
  <path d="M156,232L141,241L205,250Z" fill="rgb(68, 17, 11)" fill-opacity="0.55"/>
  <path d="M231,186L214,208L223,168Z" fill="rgb(187, 169, 149)" fill-opacity="0.52"/>
  <path d="M142,90L116,129L142,99Z" fill="rgb(137, 52, 51)" fill-opacity="0.47"/>
  <path d="M174,51L188,45L195,76Z" fill="rgb(129, 47, 5)" fill-opacity="0.60"/>
  <path d="M169,83L165,39L132,57Z" fill="rgb(135, 23, 16)" fill-opacity="0.42"/>
  <path d="M103,82L83,124L93,81Z" fill="rgb(157, 116, 108)" fill-opacity="0.51"/>
  <path d="M232,27L195,59L185,12Z" fill="rgb(135, 148, 99)" fill-opacity="0.37"/>
  <path d="M114,126L107,140L117,157Z" fill="rgb(174, 145, 141)" fill-opacity="0.47"/>
  <path d="M142,48L152,42L152,22Z" fill="rgb(174, 164, 145)" fill-opacity="0.51"/>
  <path d="M2,229L4,219L-9,200Z" fill="rgb(108, 106, 108)" fill-opacity="0.48"/>
  <path d="M93,101L96,87L109,111Z" fill="rgb(147, 80, 73)" fill-opacity="0.61"/>
  <path d="M237,189L256,214L233,207Z" fill="rgb(184, 176, 181)" fill-opacity="0.48"/>
  <path d="M9,248L-16,245L-5,266Z" fill="rgb(21, 15, 15)" fill-opacity="0.50"/>
  <path d="M197,41L213,50L228,29Z" fill="rgb(158, 169, 154)" fill-opacity="0.49"/>
  <path d="M199,223L233,198L235,215Z" fill="rgb(255, 255, 239)" fill-opacity="0.65"/>
  <path d="M29,137L24,168L-3,188Z" fill="rgb(0, 6, 10)" fill-opacity="0.44"/>
  <path d="M233,123L218,115L237,136Z" fill="rgb(137, 80, 7)" fill-opacity="0.50"/>
  <path d="M3,13L14,-3L-3,1Z" fill="rgb(116, 0, 0)" fill-opacity="0.50"/>
  <path d="M203,96L176,95L209,66Z" fill="rgb(152, 126, 75)" fill-opacity="0.50"/>
  <path d="M53,166L73,153L70,182Z" fill="rgb(117, 59, 41)" fill-opacity="0.54"/>
  <path d="M70,154L86,181L84,157Z" fill="rgb(33, 15, 9)" fill-opacity="0.61"/>
  <path d="M116,116L108,53L130,117Z" fill="rgb(108, 0, 8)" fill-opacity="0.56"/>
  <path d="M27,180L34,165L56,176Z" fill="rgb(9, 8, 10)" fill-opacity="0.61"/>
  <path d="M40,29L20,35L21,20Z" fill="rgb(227, 144, 127)" fill-opacity="0.44"/>
  <path d="M122,225L117,228L115,220Z" fill="rgb(254, 255, 255)" fill-opacity="0.44"/>
  <path d="M144,142L162,146L133,143Z" fill="rgb(126, 85, 67)" fill-opacity="0.56"/>
  <path d="M127,156L126,161L97,180Z" fill="rgb(99, 40, 32)" fill-opacity="0.70"/>
  <path d="M211,236L195,261L224,227Z" fill="rgb(98, 59, 27)" fill-opacity="0.52"/>
  <path d="M62,24L90,10L58,6Z" fill="rgb(198, 175, 134)" fill-opacity="0.52"/>
  <path d="M112,104L113,85L104,83Z" fill="rgb(207, 159, 141)" fill-opacity="0.51"/>
  <path d="M66,146L77,139L60,137Z" fill="rgb(88, 90, 89)" fill-opacity="0.54"/>
  <path d="M164,154L197,162L199,124Z" fill="rgb(126, 79, 25)" fill-opacity="0.59"/>
  <path d="M58,172L63,144L50,126Z" fill="rgb(30, 0, 0)" fill-opacity="0.56"/>
  <path d="M146,248L138,249L142,238Z" fill="rgb(191, 185, 181)" fill-opacity="0.43"/>
  <path d="M118,234L112,240L140,240Z" fill="rgb(67, 7, 2)" fill-opacity="0.73"/>
  <path d="M148,167L145,185L120,183Z" fill="rgb(114, 33, 8)" fill-opacity="0.48"/>
  <path d="M171,73L188,95L169,93Z" fill="rgb(166, 147, 127)" fill-opacity="0.34"/>
  <path d="M53,92L45,107L63,110Z" fill="rgb(6, 3, 0)" fill-opacity="0.55"/>
  <path d="M230,220L230,242L232,221Z" fill="rgb(96, 48, 21)" fill-opacity="0.56"/>
  <path d="M185,199L211,177L193,208Z" fill="rgb(255, 255, 217)" fill-opacity="0.69"/>
</svg>
