<svg xmlns="http://www.w3.org/2000/svg" viewBox="0 0 191.20987654320987 256" clip-path="url(#clip)" width="382.41975308641975" height="512">
  <defs>
    <clipPath id="clip" clipPathUnits="objectBoundingBox">
      <rect x="0" y="0" width="191.20987654320987" height="256"/></clipPath>
  </defs>
  <rect x="0" y="0" width="191.20987654320987" height="256" fill="rgb(77, 78, 66)"/>
  <path d="M34,173L91,122L88,174Z" fill="rgb(254, 223, 227)" fill-opacity="0.63"/>
  <path d="M142,166L196,150L188,204Z" fill="rgb(248, 253, 255)" fill-opacity="0.90"/>
  <path d="M152,3L145,145L516,94Z" fill="rgb(201, 215, 211)" fill-opacity="0.67"/>
  <path d="M233,205L-13,432L-18,171Z" fill="rgb(15, 14, 9)" fill-opacity="0.98"/>
  <path d="M161,198L130,144L177,175Z" fill="rgb(238, 242, 255)" fill-opacity="0.62"/>
  <path d="M143,23L81,79L145,146Z" fill="rgb(191, 59, 0)" fill-opacity="0.64"/>
  <path d="M102,79L77,50L92,157Z" fill="rgb(41, 25, 30)" fill-opacity="0.67"/>
  <path d="M43,164L79,135L35,127Z" fill="rgb(255, 201, 192)" fill-opacity="0.53"/>
  <path d="M184,146L361,73L144,109Z" fill="rgb(191, 211, 225)" fill-opacity="0.93"/>
  <path d="M94,130L-65,112L20,16Z" fill="rgb(19, 18, 13)" fill-opacity="0.73"/>
  <path d="M32,145L-3,195L51,185Z" fill="rgb(42, 43, 39)" fill-opacity="0.80"/>
  <path d="M146,111L143,144L189,133Z" fill="rgb(223, 235, 249)" fill-opacity="0.75"/>
  <path d="M16,170L22,151L16,148Z" fill="rgb(255, 255, 255)" fill-opacity="0.52"/>
  <path d="M119,156L119,145L70,153Z" fill="rgb(217, 222, 254)" fill-opacity="0.55"/>
  <path d="M61,163L72,137L75,153Z" fill="rgb(35, 4, 4)" fill-opacity="0.61"/>
  <path d="M115,149L189,160L90,115Z" fill="rgb(23, 4, 22)" fill-opacity="0.53"/>
  <path d="M155,86L230,-4L123,-33Z" fill="rgb(117, 116, 86)" fill-opacity="0.59"/>
  <path d="M63,150L51,124L79,138Z" fill="rgb(216, 160, 150)" fill-opacity="0.60"/>
  <path d="M157,50L30,93L27,-73Z" fill="rgb(78, 46, 16)" fill-opacity="0.55"/>
  <path d="M51,184L44,171L101,149Z" fill="rgb(255, 255, 247)" fill-opacity="0.48"/>
  <path d="M172,100L184,75L242,133Z" fill="rgb(200, 221, 230)" fill-opacity="0.74"/>
  <path d="M-7,224L116,154L212,237Z" fill="rgb(1, 1, 4)" fill-opacity="0.54"/>
  <path d="M93,84L153,56L100,35Z" fill="rgb(141, 44, 0)" fill-opacity="0.54"/>
  <path d="M95,152L81,128L75,182Z" fill="rgb(254, 255, 255)" fill-opacity="0.48"/>
  <path d="M161,109L162,132L175,100Z" fill="rgb(119, 132, 149)" fill-opacity="0.49"/>
  <path d="M83,79L70,78L82,120Z" fill="rgb(255, 166, 175)" fill-opacity="0.29"/>
  <path d="M157,190L132,156L165,156Z" fill="rgb(245, 250, 255)" fill-opacity="0.51"/>
  <path d="M77,161L51,135L61,159Z" fill="rgb(46, 10, 19)" fill-opacity="0.44"/>
  <path d="M15,175L20,193L9,181Z" fill="rgb(227, 252, 255)" fill-opacity="0.37"/>
  <path d="M54,146L71,134L38,146Z" fill="rgb(255, 233, 233)" fill-opacity="0.48"/>
  <path d="M76,115L122,113L100,153Z" fill="rgb(32, 27, 55)" fill-opacity="0.62"/>
  <path d="M25,112L34,108L24,98Z" fill="rgb(145, 152, 163)" fill-opacity="0.56"/>
  <path d="M144,105L139,147L98,81Z" fill="rgb(228, 102, 40)" fill-opacity="0.62"/>
  <path d="M42,141L49,162L61,143Z" fill="rgb(255, 255, 234)" fill-opacity="0.39"/>
  <path d="M74,123L42,104L5,141Z" fill="rgb(31, 35, 47)" fill-opacity="0.76"/>
  <path d="M-28,170L20,125L1,123Z" fill="rgb(139, 162, 175)" fill-opacity="0.38"/>
  <path d="M83,106L73,103L76,88Z" fill="rgb(213, 167, 166)" fill-opacity="0.49"/>
  <path d="M190,149L170,164L172,137Z" fill="rgb(0, 0, 6)" fill-opacity="0.47"/>
  <path d="M142,146L106,101L140,120Z" fill="rgb(227, 107, 46)" fill-opacity="0.72"/>
  <path d="M160,147L145,103L164,68Z" fill="rgb(231, 238, 252)" fill-opacity="0.39"/>
  <path d="M73,173L92,191L62,174Z" fill="rgb(10, 2, 37)" fill-opacity="0.47"/>
  <path d="M145,122L143,147L163,127Z" fill="rgb(254, 255, 255)" fill-opacity="0.52"/>
  <path d="M187,156L141,163L197,199Z" fill="rgb(255, 255, 255)" fill-opacity="0.59"/>
  <path d="M64,185L93,184L64,181Z" fill="rgb(78, 90, 158)" fill-opacity="0.55"/>
  <path d="M68,172L47,185L80,179Z" fill="rgb(8, 0, 0)" fill-opacity="0.60"/>
  <path d="M78,173L44,170L46,140Z" fill="rgb(255, 211, 189)" fill-opacity="0.62"/>
  <path d="M90,134L82,178L67,171Z" fill="rgb(239, 243, 255)" fill-opacity="0.55"/>
  <path d="M192,149L163,138L145,158Z" fill="rgb(1, 0, 9)" fill-opacity="0.48"/>
  <path d="M144,147L98,99L130,163Z" fill="rgb(56, 36, 34)" fill-opacity="0.92"/>
  <path d="M49,144L56,181L44,174Z" fill="rgb(250, 182, 133)" fill-opacity="0.78"/>
  <path d="M66,157L70,141L58,147Z" fill="rgb(84, 48, 55)" fill-opacity="0.53"/>
  <path d="M175,197L164,186L217,201Z" fill="rgb(233, 244, 255)" fill-opacity="0.57"/>
  <path d="M153,79L108,81L146,33Z" fill="rgb(117, 33, 0)" fill-opacity="0.30"/>
  <path d="M142,129L140,72L94,102Z" fill="rgb(201, 83, 27)" fill-opacity="0.51"/>
  <path d="M64,39L76,106L29,77Z" fill="rgb(55, 48, 37)" fill-opacity="1.00"/>
  <path d="M99,147L125,144L101,131Z" fill="rgb(0, 0, 0)" fill-opacity="0.57"/>
  <path d="M16,139L48,149L42,174Z" fill="rgb(82, 76, 72)" fill-opacity="0.62"/>
  <path d="M18,169L30,125L2,160Z" fill="rgb(194, 215, 251)" fill-opacity="0.20"/>
  <path d="M121,154L123,146L86,154Z" fill="rgb(230, 231, 247)" fill-opacity="0.49"/>
  <path d="M182,66L164,99L168,23Z" fill="rgb(109, 115, 100)" fill-opacity="0.49"/>
  <path d="M117,174L75,200L93,152Z" fill="rgb(10, 3, 15)" fill-opacity="0.53"/>
  <path d="M36,142L41,133L48,145Z" fill="rgb(255, 254, 253)" fill-opacity="0.64"/>
  <path d="M34,67L48,79L30,82Z" fill="rgb(150, 158, 152)" fill-opacity="0.37"/>
  <path d="M111,152L145,173L114,184Z" fill="rgb(73, 61, 58)" fill-opacity="0.51"/>
  <path d="M17,124L36,50L-135,-32Z" fill="rgb(7, 13, 1)" fill-opacity="0.71"/>
  <path d="M88,167L57,161L57,174Z" fill="rgb(255, 255, 255)" fill-opacity="0.50"/>
  <path d="M174,170L186,149L216,161Z" fill="rgb(240, 248, 251)" fill-opacity="0.78"/>
  <path d="M48,130L59,144L42,136Z" fill="rgb(52, 21, 17)" fill-opacity="0.67"/>
  <path d="M48,134L39,127L66,115Z" fill="rgb(82, 92, 151)" fill-opacity="0.47"/>
  <path d="M20,129L27,114L3,119Z" fill="rgb(79, 85, 78)" fill-opacity="0.48"/>
  <path d="M89,279L119,240L197,255Z" fill="rgb(59, 45, 30)" fill-opacity="0.67"/>
  <path d="M93,99L93,119L109,111Z" fill="rgb(22, 6, 10)" fill-opacity="0.64"/>
  <path d="M38,135L26,128L7,158Z" fill="rgb(90, 94, 95)" fill-opacity="0.70"/>
  <path d="M148,169L135,151L170,167Z" fill="rgb(247, 252, 255)" fill-opacity="0.57"/>
  <path d="M91,155L108,155L101,146Z" fill="rgb(227, 231, 242)" fill-opacity="0.49"/>
  <path d="M138,158L129,145L106,162Z" fill="rgb(80, 47, 55)" fill-opacity="0.48"/>
  <path d="M175,68L159,145L180,110Z" fill="rgb(153, 168, 181)" fill-opacity="0.54"/>
  <path d="M95,209L89,156L118,154Z" fill="rgb(17, 12, 14)" fill-opacity="0.68"/>
  <path d="M207,10L181,-29L161,31Z" fill="rgb(186, 195, 172)" fill-opacity="0.28"/>
  <path d="M57,136L88,131L75,146Z" fill="rgb(244, 196, 192)" fill-opacity="0.60"/>
  <path d="M11,167L44,162L44,205Z" fill="rgb(6, 5, 0)" fill-opacity="0.39"/>
  <path d="M101,74L97,99L84,69Z" fill="rgb(0, 8, 3)" fill-opacity="0.44"/>
  <path d="M186,149L173,124L184,110Z" fill="rgb(243, 255, 255)" fill-opacity="0.52"/>
  <path d="M66,-5L127,-33L95,19Z" fill="rgb(102, 29, 0)" fill-opacity="0.76"/>
  <path d="M72,155L86,147L129,146Z" fill="rgb(129, 131, 155)" fill-opacity="0.50"/>
  <path d="M48,121L30,80L31,143Z" fill="rgb(18, 18, 11)" fill-opacity="0.44"/>
  <path d="M35,64L-9,20L22,-42Z" fill="rgb(88, 83, 43)" fill-opacity="0.48"/>
  <path d="M126,156L134,145L126,136Z" fill="rgb(140, 86, 77)" fill-opacity="0.52"/>
  <path d="M133,163L141,144L109,161Z" fill="rgb(64, 49, 50)" fill-opacity="0.66"/>
  <path d="M50,181L50,162L66,173Z" fill="rgb(255, 223, 196)" fill-opacity="0.52"/>
  <path d="M156,147L115,148L162,141Z" fill="rgb(64, 54, 56)" fill-opacity="0.76"/>
  <path d="M106,146L126,145L116,117Z" fill="rgb(6, 6, 15)" fill-opacity="0.52"/>
  <path d="M61,216L-50,259L69,269Z" fill="rgb(88, 71, 29)" fill-opacity="0.30"/>
  <path d="M180,38L186,88L193,20Z" fill="rgb(168, 182, 162)" fill-opacity="0.71"/>
  <path d="M174,160L184,155L162,144Z" fill="rgb(8, 8, 12)" fill-opacity="0.45"/>
  <path d="M106,20L104,-28L139,9Z" fill="rgb(110, 103, 88)" fill-opacity="0.59"/>
  <path d="M69,133L59,112L112,126Z" fill="rgb(41, 44, 78)" fill-opacity="0.75"/>
  <path d="M90,156L51,172L85,171Z" fill="rgb(255, 255, 255)" fill-opacity="0.67"/>
  <path d="M74,143L61,159L73,162Z" fill="rgb(18, 1, 0)" fill-opacity="0.52"/>
  <path d="M74,99L88,120L73,78Z" fill="rgb(176, 141, 140)" fill-opacity="0.52"/>
  <path d="M64,116L59,46L66,52Z" fill="rgb(19, 14, 9)" fill-opacity="0.62"/>
  <path d="M169,146L154,138L166,162Z" fill="rgb(42, 44, 50)" fill-opacity="0.50"/>
  <path d="M97,191L65,177L89,175Z" fill="rgb(31, 34, 65)" fill-opacity="0.46"/>
  <path d="M98,132L102,114L88,125Z" fill="rgb(58, 69, 115)" fill-opacity="0.50"/>
  <path d="M174,158L177,198L246,186Z" fill="rgb(251, 254, 255)" fill-opacity="0.72"/>
  <path d="M163,-20L197,2L129,42Z" fill="rgb(100, 107, 82)" fill-opacity="0.47"/>
  <path d="M63,132L82,146L62,142Z" fill="rgb(243, 204, 201)" fill-opacity="0.54"/>
  <path d="M187,184L155,156L182,159Z" fill="rgb(245, 247, 250)" fill-opacity="0.53"/>
  <path d="M186,147L175,136L178,159Z" fill="rgb(10, 5, 10)" fill-opacity="0.41"/>
  <path d="M63,145L52,149L45,140Z" fill="rgb(255, 255, 255)" fill-opacity="0.42"/>
  <path d="M87,117L81,108L89,112Z" fill="rgb(238, 185, 199)" fill-opacity="0.47"/>
  <path d="M39,132L55,132L42,129Z" fill="rgb(186, 169, 178)" fill-opacity="0.52"/>
  <path d="M190,138L166,134L191,146Z" fill="rgb(225, 242, 255)" fill-opacity="0.66"/>
  <path d="M7,137L26,135L-2,148Z" fill="rgb(0, 7, 9)" fill-opacity="0.49"/>
  <path d="M48,146L45,152L44,170Z" fill="rgb(252, 175, 127)" fill-opacity="0.72"/>
  <path d="M33,139L45,150L21,143Z" fill="rgb(50, 49, 51)" fill-opacity="0.53"/>
  <path d="M171,197L165,186L143,193Z" fill="rgb(100, 96, 113)" fill-opacity="0.43"/>
  <path d="M90,124L73,130L64,81Z" fill="rgb(33, 26, 41)" fill-opacity="0.47"/>
  <path d="M47,133L46,138L60,122Z" fill="rgb(39, 28, 51)" fill-opacity="0.58"/>
  <path d="M18,173L0,169L-11,198Z" fill="rgb(40, 46, 33)" fill-opacity="0.61"/>
  <path d="M166,144L176,159L185,153Z" fill="rgb(14, 13, 18)" fill-opacity="0.52"/>
  <path d="M124,147L119,159L127,148Z" fill="rgb(131, 87, 94)" fill-opacity="0.52"/>
  <path d="M90,86L86,64L75,93Z" fill="rgb(52, 34, 19)" fill-opacity="0.50"/>
  <path d="M66,145L55,142L45,132Z" fill="rgb(40, 13, 7)" fill-opacity="0.44"/>
  <path d="M144,13L67,24L138,40Z" fill="rgb(52, 66, 48)" fill-opacity="0.45"/>
  <path d="M73,148L88,145L88,131Z" fill="rgb(255, 232, 251)" fill-opacity="0.43"/>
  <path d="M28,129L44,127L28,117Z" fill="rgb(0, 0, 0)" fill-opacity="0.58"/>
  <path d="M164,142L152,132L157,142Z" fill="rgb(245, 248, 248)" fill-opacity="0.52"/>
  <path d="M158,137L154,154L151,147Z" fill="rgb(34, 35, 36)" fill-opacity="0.50"/>
  <path d="M76,180L97,179L84,187Z" fill="rgb(69, 83, 142)" fill-opacity="0.31"/>
  <path d="M174,141L189,119L179,84Z" fill="rgb(216, 239, 249)" fill-opacity="0.62"/>
  <path d="M87,133L63,142L80,129Z" fill="rgb(228, 185, 178)" fill-opacity="0.64"/>
  <path d="M163,99L162,25L167,28Z" fill="rgb(198, 212, 199)" fill-opacity="0.37"/>
  <path d="M19,193L29,194L14,196Z" fill="rgb(71, 74, 68)" fill-opacity="0.55"/>
  <path d="M12,133L-1,150L33,122Z" fill="rgb(0, 0, 0)" fill-opacity="0.46"/>
  <path d="M159,119L162,139L144,142Z" fill="rgb(255, 255, 255)" fill-opacity="0.48"/>
  <path d="M38,247L71,185L18,171Z" fill="rgb(13, 16, 10)" fill-opacity="0.65"/>
  <path d="M161,99L144,138L147,80Z" fill="rgb(182, 190, 200)" fill-opacity="0.56"/>
  <path d="M144,133L147,43L142,99Z" fill="rgb(63, 17, 7)" fill-opacity="0.63"/>
  <path d="M123,186L138,184L160,248Z" fill="rgb(6, 5, 4)" fill-opacity="0.64"/>
  <path d="M78,9L95,69L67,71Z" fill="rgb(79, 72, 56)" fill-opacity="0.63"/>
  <path d="M96,84L156,36L95,42Z" fill="rgb(138, 50, 3)" fill-opacity="0.49"/>
  <path d="M92,156L102,155L89,149Z" fill="rgb(202, 202, 211)" fill-opacity="0.54"/>
  <path d="M16,172L18,180L10,184Z" fill="rgb(162, 179, 196)" fill-opacity="0.50"/>
  <path d="M143,20L177,-6L178,-47Z" fill="rgb(94, 90, 70)" fill-opacity="0.78"/>
  <path d="M76,72L59,79L71,92Z" fill="rgb(26, 24, 19)" fill-opacity="0.54"/>
  <path d="M38,69L47,66L43,83Z" fill="rgb(112, 112, 100)" fill-opacity="0.54"/>
  <path d="M147,82L161,60L152,1Z" fill="rgb(121, 123, 96)" fill-opacity="0.72"/>
  <path d="M61,144L71,149L67,142Z" fill="rgb(40, 20, 19)" fill-opacity="0.48"/>
  <path d="M159,146L158,84L164,86Z" fill="rgb(219, 233, 242)" fill-opacity="0.66"/>
  <path d="M136,163L158,194L116,178Z" fill="rgb(55, 49, 43)" fill-opacity="0.70"/>
  <path d="M119,118L131,133L106,144Z" fill="rgb(28, 17, 16)" fill-opacity="0.68"/>
  <path d="M37,141L36,146L34,134Z" fill="rgb(15, 7, 12)" fill-opacity="0.48"/>
  <path d="M200,-1L162,26L184,20Z" fill="rgb(163, 170, 154)" fill-opacity="0.54"/>
  <path d="M10,49L-13,90L1,27Z" fill="rgb(0, 4, 0)" fill-opacity="0.73"/>
  <path d="M36,132L25,129L26,141Z" fill="rgb(117, 118, 119)" fill-opacity="0.59"/>
  <path d="M87,168L114,179L104,221Z" fill="rgb(6, 4, 5)" fill-opacity="0.47"/>
  <path d="M93,235L82,237L93,270Z" fill="rgb(65, 52, 34)" fill-opacity="0.64"/>
  <path d="M132,163L113,181L116,165Z" fill="rgb(85, 85, 79)" fill-opacity="0.42"/>
  <path d="M-44,179L23,165L-4,194Z" fill="rgb(36, 39, 28)" fill-opacity="0.67"/>
  <path d="M163,121L175,79L163,94Z" fill="rgb(137, 147, 155)" fill-opacity="0.61"/>
  <path d="M81,77L71,71L90,70Z" fill="rgb(3, 4, 8)" fill-opacity="0.54"/>
  <path d="M75,13L51,52L109,38Z" fill="rgb(77, 70, 50)" fill-opacity="0.56"/>
  <path d="M144,144L154,140L146,112Z" fill="rgb(245, 254, 255)" fill-opacity="0.57"/>
  <path d="M19,161L20,165L12,163Z" fill="rgb(244, 249, 253)" fill-opacity="0.48"/>
  <path d="M45,158L32,180L18,149Z" fill="rgb(70, 71, 63)" fill-opacity="0.42"/>
  <path d="M112,-13L95,21L108,-18Z" fill="rgb(6, 7, 3)" fill-opacity="0.52"/>
  <path d="M32,59L4,75L15,34Z" fill="rgb(26, 37, 15)" fill-opacity="0.58"/>
  <path d="M180,161L166,156L156,164Z" fill="rgb(201, 211, 221)" fill-opacity="0.54"/>
  <path d="M99,98L146,76L101,77Z" fill="rgb(159, 61, 13)" fill-opacity="0.62"/>
  <path d="M48,146L55,156L43,164Z" fill="rgb(237, 155, 108)" fill-opacity="0.50"/>
  <path d="M73,85L20,86L51,122Z" fill="rgb(23, 14, 12)" fill-opacity="0.41"/>
  <path d="M139,140L141,107L124,125Z" fill="rgb(255, 131, 63)" fill-opacity="0.39"/>
  <path d="M189,233L182,270L235,166Z" fill="rgb(54, 51, 43)" fill-opacity="1.00"/>
  <path d="M110,-4L118,20L100,13Z" fill="rgb(98, 93, 81)" fill-opacity="0.55"/>
  <path d="M43,132L43,128L48,133Z" fill="rgb(232, 208, 208)" fill-opacity="0.52"/>
  <path d="M97,148L104,134L92,134Z" fill="rgb(48, 16, 0)" fill-opacity="0.50"/>
  <path d="M-24,4L21,35L44,-7Z" fill="rgb(86, 84, 57)" fill-opacity="0.50"/>
  <path d="M65,233L129,189L165,249Z" fill="rgb(4, 4, 2)" fill-opacity="0.80"/>
  <path d="M90,170L124,162L67,183Z" fill="rgb(23, 14, 16)" fill-opacity="0.62"/>
  <path d="M29,22L37,48L38,6Z" fill="rgb(49, 36, 5)" fill-opacity="0.47"/>
  <path d="M170,184L153,186L172,194Z" fill="rgb(156, 168, 204)" fill-opacity="0.44"/>
  <path d="M174,138L176,120L161,136Z" fill="rgb(166, 193, 219)" fill-opacity="0.49"/>
  <path d="M17,179L15,179L16,171Z" fill="rgb(190, 205, 210)" fill-opacity="0.50"/>
  <path d="M144,141L169,142L166,141Z" fill="rgb(246, 243, 254)" fill-opacity="0.42"/>
  <path d="M69,172L77,177L62,173Z" fill="rgb(42, 26, 33)" fill-opacity="0.50"/>
  <path d="M177,139L179,159L136,152Z" fill="rgb(22, 20, 23)" fill-opacity="0.56"/>
  <path d="M148,56L143,54L147,83Z" fill="rgb(51, 16, 1)" fill-opacity="0.49"/>
  <path d="M33,77L45,75L53,90Z" fill="rgb(95, 93, 81)" fill-opacity="0.54"/>
  <path d="M16,68L-28,124L19,111Z" fill="rgb(0, 1, 0)" fill-opacity="0.63"/>
  <path d="M97,107L87,119L116,113Z" fill="rgb(12, 11, 21)" fill-opacity="0.49"/>
  <path d="M52,122L62,112L61,128Z" fill="rgb(67, 71, 130)" fill-opacity="0.51"/>
  <path d="M58,200L83,213L81,335Z" fill="rgb(3, 4, 2)" fill-opacity="1.00"/>
  <path d="M144,135L144,97L142,148Z" fill="rgb(57, 23, 20)" fill-opacity="0.65"/>
  <path d="M190,197L227,165L190,154Z" fill="rgb(5, 147, 230)" fill-opacity="0.15"/>
  <path d="M144,127L161,135L145,144Z" fill="rgb(253, 255, 255)" fill-opacity="0.50"/>
  <path d="M60,179L88,180L65,172Z" fill="rgb(22, 12, 18)" fill-opacity="0.52"/>
  <path d="M78,156L78,140L75,164Z" fill="rgb(6, 8, 0)" fill-opacity="0.26"/>
  <path d="M85,10L79,21L56,-14Z" fill="rgb(49, 44, 21)" fill-opacity="0.35"/>
  <path d="M22,185L27,205L11,174Z" fill="rgb(21, 25, 23)" fill-opacity="0.49"/>
  <path d="M2,171L28,214L-3,211Z" fill="rgb(23, 27, 13)" fill-opacity="0.64"/>
  <path d="M153,182L142,171L156,195Z" fill="rgb(76, 71, 78)" fill-opacity="0.51"/>
  <path d="M68,135L75,133L59,120Z" fill="rgb(36, 22, 42)" fill-opacity="0.58"/>
  <path d="M211,168L165,156L171,185Z" fill="rgb(254, 255, 253)" fill-opacity="0.49"/>
  <path d="M138,148L150,157L154,154Z" fill="rgb(22, 19, 22)" fill-opacity="0.50"/>
  <path d="M129,121L146,91L91,99Z" fill="rgb(199, 86, 35)" fill-opacity="0.41"/>
  <path d="M39,146L68,148L37,136Z" fill="rgb(244, 219, 220)" fill-opacity="0.52"/>
  <path d="M158,161L167,183L160,190Z" fill="rgb(182, 201, 230)" fill-opacity="0.40"/>
  <path d="M179,81L180,31L176,84Z" fill="rgb(120, 126, 105)" fill-opacity="0.57"/>
</svg>
