<svg xmlns="http://www.w3.org/2000/svg" viewBox="0 0 191.20987654320987 256" clip
  -path="url(#clip)" width="382.41975308641975" height="512">
  <defs>
    <clipPath id="clip" clipPathUnits="objectBoundingBox">
      <rect x="0" y="0" width="191.20987654320987" height="256"/>
    </clipPath>
  </defs>
<rect x="0" y="0" width="191.20987654320987" height="256" fill="rgb(56, 48, 36)"/>
<path d="M184,42L49,138L59,-22Z" fill="rgb(169, 174, 173)" fill-opacity="0.92"/>
<path d="M61,145L89,130L83,185Z" fill="rgb(250, 255, 255)" fill-opacity="0.76"/>
<path d="M40,129L64,96L-17,77Z" fill="rgb(206, 153, 109)" fill-opacity="0.75"/>
<path d="M104,55L106,176L187,56Z" fill="rgb(87, 87, 96)" fill-opacity="1.00"/>
<path d="M14,218L68,199L30,93Z" fill="rgb(251, 178, 89)" fill-opacity="0.51"/>
<path d="M54,132L59,18L112,88Z" fill="rgb(248, 255, 255)" fill-opacity="0.68"/>
<path d="M48,146L62,188L44,184Z" fill="rgb(255, 255, 255)" fill-opacity="0.52"/>
<path d="M-4,111L-14,135L70,133Z" fill="rgb(9, 0, 0)" fill-opacity="0.66"/>
<path d="M53,3L182,69L187,-136Z" fill="rgb(110, 120, 112)" fill-opacity="0.73"/>
<path d="M63,227L62,274L103,217Z" fill="rgb(204, 167, 144)" fill-opacity="0.50"/>
<path d="M42,177L57,124L25,167Z" fill="rgb(121, 67, 3)" fill-opacity="0.50"/>
<path d="M28,234L32,305L-19,211Z" fill="rgb(245, 217, 208)" fill-opacity="0.48"/>
<path d="M66,134L68,155L40,122Z" fill="rgb(29, 19, 13)" fill-opacity="0.75"/>
<path d="M55,11L18,67L57,90Z" fill="rgb(113, 59, 34)" fill-opacity="0.88"/>
<path d="M143,58L139,113L181,46Z" fill="rgb(133, 158, 164)" fill-opacity="0.50"/>
<path d="M29,105L43,118L25,123Z" fill="rgb(254, 249, 255)" fill-opacity="0.57"/>
<path d="M113,52L130,91L140,64Z" fill="rgb(30, 12, 2)" fill-opacity="0.74"/>
<path d="M172,167L162,145L139,233Z" fill="rgb(160, 124, 138)" fill-opacity="0.44"/>
<path d="M43,91L67,130L84,87Z" fill="rgb(255, 255, 249)" fill-opacity="0.44"/>
<path d="M68,163L69,138L88,165Z" fill="rgb(255, 255, 255)" fill-opacity="0.48"/>
<path d="M10,123L32,105L-25,92Z" fill="rgb(23, 7, 0)" fill-opacity="0.76"/>
<path d="M109,119L128,63L101,65Z" fill="rgb(156, 106, 101)" fill-opacity="0.81"/>
<path d="M34,164L46,168L38,130Z" fill="rgb(0, 13, 43)" fill-opacity="0.53"/>
<path d="M100,185L77,108L162,105Z" fill="rgb(50, 68, 95)" fill-opacity="0.80"/>
<path d="M28,44L40,43L27,122Z" fill="rgb(173, 165, 146)" fill-opacity="0.44"/>
<path d="M26,168L14,103L-35,229Z" fill="rgb(5, 0, 0)" fill-opacity="0.69"/>
<path d="M22,133L49,193L21,149Z" fill="rgb(255, 151, 9)" fill-opacity="0.46"/>
<path d="M15,188L46,212L-10,230Z" fill="rgb(80, 70, 100)" fill-opacity="0.43"/>
<path d="M167,169L163,147L151,154Z" fill="rgb(138, 113, 114)" fill-opacity="0.77"/>
<path d="M156,147L121,241L62,187Z" fill="rgb(0, 7, 17)" fill-opacity="0.66"/>
<path d="M56,160L53,139L43,160Z" fill="rgb(255, 208, 121)" fill-opacity="0.50"/>
<path d="M39,214L32,131L18,178Z" fill="rgb(244, 144, 0)" fill-opacity="0.56"/>
<path d="M123,115L136,82L154,83Z" fill="rgb(139, 151, 159)" fill-opacity="0.56"/>
<path d="M39,98L54,133L52,92Z" fill="rgb(255, 135, 14)" fill-opacity="0.53"/>
<path d="M28,101L53,132L34,77Z" fill="rgb(96, 68, 55)" fill-opacity="0.67"/>
<path d="M80,232L56,232L66,266Z" fill="rgb(172, 144, 122)" fill-opacity="0.52"/>
<path d="M124,223L138,225L149,200Z" fill="rgb(158, 132, 159)" fill-opacity="0.52"/>
<path d="M31,86L-14,88L25,91Z" fill="rgb(221, 240, 248)" fill-opacity="0.57"/>
<path d="M119,115L99,105L124,106Z" fill="rgb(198, 141, 145)" fill-opacity="0.61"/>
<path d="M217,87L147,119L215,223Z" fill="rgb(3, 2, 1)" fill-opacity="0.65"/>
<path d="M88,133L64,152L79,184Z" fill="rgb(246, 251, 253)" fill-opacity="0.52"/>
<path d="M89,73L54,24L114,52Z" fill="rgb(182, 205, 214)" fill-opacity="0.74"/>
<path d="M37,263L98,190L34,221Z" fill="rgb(2, 11, 21)" fill-opacity="0.70"/>
<path d="M67,186L65,209L27,205Z" fill="rgb(142, 78, 8)" fill-opacity="0.53"/>
<path d="M81,103L69,136L116,98Z" fill="rgb(77, 88, 120)" fill-opacity="0.53"/>
<path d="M39,96L-32,106L-15,86Z" fill="rgb(255, 146, 23)" fill-opacity="0.50"/>
<path d="M163,166L137,138L132,211Z" fill="rgb(2, 5, 9)" fill-opacity="0.46"/>
<path d="M108,171L65,175L66,236Z" fill="rgb(0, 0, 0)" fill-opacity="0.26"/>
<path d="M62,62L109,93L53,123Z" fill="rgb(240, 248, 248)" fill-opacity="0.65"/>
<path d="M301,170L118,264L182,160Z" fill="rgb(26, 20, 9)" fill-opacity="0.62"/>
<path d="M105,216L86,218L78,223Z" fill="rgb(182, 151, 128)" fill-opacity="0.48"/>
<path d="M123,59L124,103L141,72Z" fill="rgb(41, 21, 14)" fill-opacity="0.72"/>
<path d="M76,5L55,36L55,-4Z" fill="rgb(162, 171, 154)" fill-opacity="0.74"/>
<path d="M120,29L147,77L166,54Z" fill="rgb(131, 147, 153)" fill-opacity="0.68"/>
<path d="M57,156L46,151L49,185Z" fill="rgb(255, 255, 251)" fill-opacity="0.50"/>
<path d="M158,231L119,227L105,304Z" fill="rgb(5, 12, 19)" fill-opacity="0.71"/>
<path d="M29,68L23,-44L-43,116Z" fill="rgb(18, 13, 0)" fill-opacity="0.59"/>
<path d="M124,97L147,111L109,100Z" fill="rgb(80, 37, 29)" fill-opacity="0.52"/>
<path d="M181,27L173,106L138,104Z" fill="rgb(89, 105, 114)" fill-opacity="0.44"/>
<path d="M11,103L31,125L-14,176Z" fill="rgb(15, 8, 1)" fill-opacity="0.85"/>
<path d="M21,226L48,200L32,263Z" fill="rgb(39, 63, 92)" fill-opacity="0.54"/>
<path d="M8,155L28,210L-22,149Z" fill="rgb(10, 8, 0)" fill-opacity="0.47"/>
<path d="M43,147L33,131L46,110Z" fill="rgb(60, 48, 46)" fill-opacity="0.67"/>
<path d="M12,235L10,217L-57,294Z" fill="rgb(177, 155, 138)" fill-opacity="0.69"/>
<path d="M128,62L125,121L116,79Z" fill="rgb(102, 53, 44)" fill-opacity="0.51"/>
<path d="M25,119L28,105L34,125Z" fill="rgb(255, 255, 255)" fill-opacity="0.53"/>
<path d="M182,96L153,154L114,115Z" fill="rgb(34, 51, 68)" fill-opacity="0.52"/>
<path d="M22,198L15,218L13,203Z" fill="rgb(181, 177, 191)" fill-opacity="0.57"/>
<path d="M42,206L27,222L32,207Z" fill="rgb(181, 170, 167)" fill-opacity="0.51"/>
<path d="M41,62L44,62L44,45Z" fill="rgb(201, 177, 161)" fill-opacity="0.69"/>
<path d="M57,173L62,131L67,149Z" fill="rgb(3, 0, 0)" fill-opacity="0.61"/>
<path d="M56,60L90,48L104,80Z" fill="rgb(229, 244, 250)" fill-opacity="0.55"/>
<path d="M64,150L52,161L78,199Z" fill="rgb(18, 6, 0)" fill-opacity="0.53"/>
<path d="M63,14L97,45L65,44Z" fill="rgb(143, 170, 177)" fill-opacity="0.62"/>
<path d="M-8,67L35,89L3,87Z" fill="rgb(72, 81, 76)" fill-opacity="0.58"/>
<path d="M47,231L63,253L55,300Z" fill="rgb(6, 9, 9)" fill-opacity="0.89"/>
<path d="M19,241L-44,291L33,255Z" fill="rgb(177, 153, 139)" fill-opacity="0.84"/>
<path d="M86,175L81,180L86,162Z" fill="rgb(221, 238, 255)" fill-opacity="0.53"/>
<path d="M28,41L36,36L39,53Z" fill="rgb(134, 88, 41)" fill-opacity="0.69"/>
<path d="M44,166L21,181L47,186Z" fill="rgb(231, 139, 10)" fill-opacity="0.64"/>
<path d="M102,67L104,77L110,61Z" fill="rgb(19, 34, 31)" fill-opacity="0.48"/>
<path d="M37,125L58,135L45,113Z" fill="rgb(28, 19, 15)" fill-opacity="0.43"/>
<path d="M120,54L139,63L100,63Z" fill="rgb(5, 7, 0)" fill-opacity="0.57"/>
<path d="M36,54L36,90L26,60Z" fill="rgb(150, 150, 150)" fill-opacity="0.38"/>
<path d="M123,213L150,208L133,230Z" fill="rgb(120, 98, 110)" fill-opacity="0.64"/>
<path d="M137,61L127,28L84,38Z" fill="rgb(143, 164, 175)" fill-opacity="0.61"/>
<path d="M42,111L42,118L28,108Z" fill="rgb(233, 173, 190)" fill-opacity="0.50"/>
<path d="M177,94L193,-15L190,126Z" fill="rgb(14, 7, 0)" fill-opacity="0.56"/>
<path d="M45,190L27,191L46,193Z" fill="rgb(227, 219, 192)" fill-opacity="0.48"/>
<path d="M34,93L28,103L18,90Z" fill="rgb(250, 151, 52)" fill-opacity="0.46"/>
<path d="M62,248L69,228L53,239Z" fill="rgb(168, 141, 118)" fill-opacity="0.53"/>
<path d="M84,106L56,42L67,123Z" fill="rgb(241, 248, 246)" fill-opacity="0.82"/>
<path d="M97,146L83,99L125,117Z" fill="rgb(68, 93, 130)" fill-opacity="0.48"/>
<path d="M44,150L62,157L47,133Z" fill="rgb(189, 100, 3)" fill-opacity="0.56"/>
<path d="M112,189L158,124L83,168Z" fill="rgb(32, 48, 71)" fill-opacity="0.54"/>
<path d="M21,223L21,193L33,202Z" fill="rgb(61, 52, 49)" fill-opacity="0.63"/>
<path d="M106,220L89,214L114,234Z" fill="rgb(109, 85, 64)" fill-opacity="0.49"/>
<path d="M66,142L69,166L88,132Z" fill="rgb(252, 254, 247)" fill-opacity="0.50"/>
<path d="M57,81L34,87L57,90Z" fill="rgb(0, 5, 17)" fill-opacity="0.55"/>
<path d="M113,63L119,75L102,76Z" fill="rgb(227, 169, 161)" fill-opacity="0.55"/>
<path d="M55,75L55,17L24,11Z" fill="rgb(78, 18, 0)" fill-opacity="0.61"/>
<path d="M46,56L43,39L41,52Z" fill="rgb(206, 180, 157)" fill-opacity="0.37"/>
<path d="M106,18L100,54L58,24Z" fill="rgb(153, 174, 175)" fill-opacity="0.54"/>
<path d="M90,88L76,77L89,72Z" fill="rgb(160, 197, 226)" fill-opacity="0.52"/>
<path d="M19,139L38,127L41,134Z" fill="rgb(168, 135, 109)" fill-opacity="0.51"/>
<path d="M218,-4L171,25L145,-16Z" fill="rgb(70, 64, 49)" fill-opacity="0.47"/>
<path d="M73,166L77,183L86,167Z" fill="rgb(148, 162, 189)" fill-opacity="0.48"/>
<path d="M28,100L37,108L5,99Z" fill="rgb(129, 54, 0)" fill-opacity="0.54"/>
<path d="M42,110L38,88L47,105Z" fill="rgb(243, 145, 54)" fill-opacity="0.57"/>
<path d="M57,84L36,81L55,43Z" fill="rgb(219, 49, 0)" fill-opacity="0.30"/>
<path d="M37,70L28,76L28,68Z" fill="rgb(212, 208, 204)" fill-opacity="0.50"/>
<path d="M56,176L72,205L64,179Z" fill="rgb(99, 62, 20)" fill-opacity="0.59"/>
<path d="M110,-23L108,16L99,7Z" fill="rgb(76, 83, 64)" fill-opacity="0.54"/>
<path d="M61,154L55,133L44,154Z" fill="rgb(168, 92, 7)" fill-opacity="0.44"/>
<path d="M81,69L86,60L71,57Z" fill="rgb(160, 197, 210)" fill-opacity="0.52"/>
<path d="M68,141L38,124L67,149Z" fill="rgb(10, 8, 8)" fill-opacity="0.38"/>
<path d="M45,189L54,209L60,189Z" fill="rgb(203, 110, 0)" fill-opacity="0.57"/>
<path d="M66,125L61,169L73,120Z" fill="rgb(34, 17, 11)" fill-opacity="0.54"/>
<path d="M10,171L21,192L12,208Z" fill="rgb(52, 23, 12)" fill-opacity="0.64"/>
<path d="M112,0L163,4L136,22Z" fill="rgb(155, 135, 113)" fill-opacity="0.28"/>
<path d="M117,120L100,91L120,80Z" fill="rgb(181, 122, 118)" fill-opacity="0.43"/>
<path d="M72,116L81,127L74,128Z" fill="rgb(205, 145, 138)" fill-opacity="0.43"/>
<path d="M16,220L-13,188L-6,225Z" fill="rgb(42, 8, 0)" fill-opacity="0.43"/>
<path d="M92,62L109,49L104,63Z" fill="rgb(213, 224, 231)" fill-opacity="0.59"/>
<path d="M64,154L87,151L84,176Z" fill="rgb(255, 255, 251)" fill-opacity="0.50"/>
<path d="M47,165L42,151L32,159Z" fill="rgb(0, 0, 0)" fill-opacity="0.52"/>
<path d="M152,101L131,81L167,74Z" fill="rgb(126, 138, 143)" fill-opacity="0.49"/>
<path d="M101,77L105,103L79,62Z" fill="rgb(230, 245, 249)" fill-opacity="0.54"/>
<path d="M171,153L153,149L162,179Z" fill="rgb(139, 110, 107)" fill-opacity="0.46"/>
<path d="M30,88L30,107L41,99Z" fill="rgb(77, 81, 81)" fill-opacity="0.57"/>
<path d="M88,143L91,140L85,120Z" fill="rgb(6, 3, 8)" fill-opacity="0.50"/>
<path d="M25,43L55,21L-83,-119Z" fill="rgb(49, 27, 5)" fill-opacity="0.65"/>
<path d="M33,160L20,185L33,202Z" fill="rgb(233, 134, 0)" fill-opacity="0.56"/>
<path d="M110,95L110,79L118,74Z" fill="rgb(106, 57, 51)" fill-opacity="0.49"/>
<path d="M76,255L121,277L94,211Z" fill="rgb(99, 78, 65)" fill-opacity="0.43"/>
<path d="M110,42L94,28L105,52Z" fill="rgb(200, 194, 198)" fill-opacity="0.46"/>
<path d="M68,184L72,225L151,184Z" fill="rgb(11, 12, 12)" fill-opacity="0.89"/>
<path d="M48,153L61,188L46,182Z" fill="rgb(255, 255, 242)" fill-opacity="0.63"/>
<path d="M157,13L140,42L178,19Z" fill="rgb(127, 134, 130)" fill-opacity="0.40"/>
<path d="M40,167L46,163L32,156Z" fill="rgb(0, 4, 2)" fill-opacity="0.54"/>
<path d="M-5,99L27,104L19,147Z" fill="rgb(19, 8, 0)" fill-opacity="0.64"/>
<path d="M7,190L26,231L6,233Z" fill="rgb(163, 116, 143)" fill-opacity="0.23"/>
<path d="M145,198L135,214L120,183Z" fill="rgb(1, 2, 2)" fill-opacity="0.56"/>
<path d="M59,20L69,32L54,23Z" fill="rgb(165, 195, 205)" fill-opacity="0.56"/>
<path d="M103,24L133,23L107,39Z" fill="rgb(116, 138, 139)" fill-opacity="0.46"/>
<path d="M55,60L67,35L65,128Z" fill="rgb(255, 255, 253)" fill-opacity="0.48"/>
<path d="M46,118L56,128L55,110Z" fill="rgb(255, 232, 163)" fill-opacity="0.42"/>
<path d="M9,235L-21,284L7,220Z" fill="rgb(179, 159, 140)" fill-opacity="0.58"/>
<path d="M46,200L46,223L49,184Z" fill="rgb(67, 61, 60)" fill-opacity="0.63"/>
<path d="M140,107L140,77L130,93Z" fill="rgb(126, 157, 173)" fill-opacity="0.51"/>
<path d="M181,53L161,46L185,33Z" fill="rgb(82, 88, 95)" fill-opacity="0.62"/>
<path d="M125,221L147,242L139,296Z" fill="rgb(8, 9, 10)" fill-opacity="0.75"/>
<path d="M26,58L-45,109L-6,43Z" fill="rgb(10, 7, 0)" fill-opacity="0.60"/>
<path d="M66,125L62,134L84,134Z" fill="rgb(49, 22, 11)" fill-opacity="0.57"/>
<path d="M30,53L55,55L43,58Z" fill="rgb(90, 35, 8)" fill-opacity="0.61"/>
<path d="M211,232L147,225L145,259Z" fill="rgb(53, 44, 30)" fill-opacity="0.71"/>
<path d="M181,96L140,111L168,142Z" fill="rgb(42, 38, 25)" fill-opacity="0.52"/>
<path d="M110,67L123,62L108,82Z" fill="rgb(206, 143, 134)" fill-opacity="0.47"/>
<path d="M141,69L146,44L158,80Z" fill="rgb(155, 159, 161)" fill-opacity="0.50"/>
<path d="M28,81L7,75L28,65Z" fill="rgb(22, 13, 6)" fill-opacity="0.65"/>
<path d="M48,177L54,160L44,167Z" fill="rgb(255, 255, 244)" fill-opacity="0.47"/>
<path d="M132,62L126,80L147,77Z" fill="rgb(0, 0, 1)" fill-opacity="0.43"/>
<path d="M58,179L57,171L48,170Z" fill="rgb(233, 243, 217)" fill-opacity="0.59"/>
<path d="M31,89L53,94L66,93Z" fill="rgb(235, 237, 235)" fill-opacity="0.53"/>
<path d="M56,165L79,195L71,165Z" fill="rgb(11, 5, 0)" fill-opacity="0.61"/>
<path d="M10,91L21,89L-9,86Z" fill="rgb(255, 255, 255)" fill-opacity="0.50"/>
<path d="M79,113L82,117L69,123Z" fill="rgb(46, 49, 58)" fill-opacity="0.66"/>
<path d="M64,155L87,152L86,140Z" fill="rgb(254, 254, 249)" fill-opacity="0.69"/>
<path d="M124,113L105,102L113,114Z" fill="rgb(203, 154, 161)" fill-opacity="0.44"/>
<path d="M14,229L24,223L11,252Z" fill="rgb(112, 95, 90)" fill-opacity="0.55"/>
<path d="M10,168L4,224L-26,231Z" fill="rgb(25, 18, 9)" fill-opacity="0.60"/>
<path d="M123,7L137,23L106,11Z" fill="rgb(98, 112, 98)" fill-opacity="0.59"/>
<path d="M51,89L59,131L75,115Z" fill="rgb(255, 255, 251)" fill-opacity="0.53"/>
<path d="M149,208L129,227L128,212Z" fill="rgb(128, 109, 120)" fill-opacity="0.54"/>
<path d="M68,21L55,31L76,27Z" fill="rgb(196, 212, 210)" fill-opacity="0.47"/>
<path d="M42,42L46,46L42,46Z" fill="rgb(255, 255, 255)" fill-opacity="0.49"/>
<path d="M164,40L165,52L158,49Z" fill="rgb(153, 147, 151)" fill-opacity="0.68"/>
<path d="M87,95L71,106L64,99Z" fill="rgb(181, 207, 222)" fill-opacity="0.47"/>
<path d="M47,45L36,57L36,48Z" fill="rgb(63, 37, 25)" fill-opacity="0.53"/>
<path d="M61,173L60,162L78,168Z" fill="rgb(25, 22, 22)" fill-opacity="0.58"/>
<path d="M25,115L35,123L37,109Z" fill="rgb(245, 228, 229)" fill-opacity="0.57"/>
<path d="M148,154L163,148L138,103Z" fill="rgb(33, 54, 82)" fill-opacity="0.60"/>
<path d="M19,143L36,154L29,132Z" fill="rgb(233, 152, 40)" fill-opacity="0.49"/>
<path d="M50,120L44,108L38,111Z" fill="rgb(95, 44, 24)" fill-opacity="0.52"/>
<path d="M39,96L53,126L53,97Z" fill="rgb(255, 143, 39)" fill-opacity="0.47"/>
<path d="M37,73L34,71L27,72Z" fill="rgb(255, 255, 255)" fill-opacity="0.52"/>
<path d="M138,31L147,33L111,58Z" fill="rgb(50, 80, 91)" fill-opacity="0.31"/>
<path d="M72,226L35,249L22,236Z" fill="rgb(14, 22, 26)" fill-opacity="0.46"/>
<path d="M17,217L19,208L12,207Z" fill="rgb(181, 175, 184)" fill-opacity="0.55"/>
<path d="M63,144L71,140L70,127Z" fill="rgb(36, 21, 16)" fill-opacity="0.54"/>
<path d="M157,171L131,188L154,190Z" fill="rgb(44, 34, 22)" fill-opacity="0.55"/>
<path d="M48,191L42,209L36,191Z" fill="rgb(128, 128, 135)" fill-opacity="0.50"/>
<path d="M172,157L177,94L200,172Z" fill="rgb(5, 1, 0)" fill-opacity="0.68"/>
<path d="M97,100L84,105L109,108Z" fill="rgb(49, 72, 103)" fill-opacity="0.53"/>
<path d="M99,89L106,98L94,101Z" fill="rgb(252, 255, 255)" fill-opacity="0.50"/>
<path d="M136,83L126,76L129,90Z" fill="rgb(93, 55, 50)" fill-opacity="0.46"/>
<path d="M58,166L60,129L71,189Z" fill="rgb(18, 12, 7)" fill-opacity="0.71"/>
<path d="M65,249L98,212L78,222Z" fill="rgb(165, 137, 114)" fill-opacity="0.36"/>
<path d="M58,154L57,171L53,167Z" fill="rgb(119, 79, 36)" fill-opacity="0.50"/>
<path d="M161,74L168,55L171,68Z" fill="rgb(119, 136, 142)" fill-opacity="0.51"/>
<path d="M-25,249L4,252L7,248Z" fill="rgb(0, 0, 0)" fill-opacity="0.48"/>
<path d="M-13,88L19,91L-12,105Z" fill="rgb(239, 151, 61)" fill-opacity="0.59"/>
<path d="M147,45L158,59L147,33Z" fill="rgb(70, 96, 109)" fill-opacity="0.41"/>
<path d="M47,188L29,184L57,188Z" fill="rgb(71, 49, 30)" fill-opacity="0.65"/>
<path d="M175,33L166,2L164,39Z" fill="rgb(87, 96, 92)" fill-opacity="0.66"/>
<path d="M63,187L61,198L70,207Z" fill="rgb(88, 39, 0)" fill-opacity="0.46"/>
<path d="M16,207L20,210L29,199Z" fill="rgb(32, 33, 33)" fill-opacity="0.59"/>
<path d="M18,183L19,173L26,160Z" fill="rgb(166, 115, 89)" fill-opacity="0.44"/>
<path d="M108,57L103,72L123,53Z" fill="rgb(25, 18, 7)" fill-opacity="0.40"/>
</svg>
